<?xml version="1.0" encoding="UTF-8" standalone="no"?>
<!-- Created with Inkscape (http://www.inkscape.org/) -->

<svg
   xmlns:dc="http://purl.org/dc/elements/1.1/"
   xmlns:cc="http://creativecommons.org/ns#"
   xmlns:rdf="http://www.w3.org/1999/02/22-rdf-syntax-ns#"
   xmlns:svg="http://www.w3.org/2000/svg"
   xmlns="http://www.w3.org/2000/svg"
   xmlns:sodipodi="http://sodipodi.sourceforge.net/DTD/sodipodi-0.dtd"
   xmlns:inkscape="http://www.inkscape.org/namespaces/inkscape"
   width="400"
   height="200"
   viewBox="0 0 105.83333 52.916668"
   version="1.1"
   id="svg8"
   inkscape:version="0.92.3 (2405546, 2018-03-11)"
   sodipodi:docname="header.svg"
   inkscape:export-filename="header.png"
   inkscape:export-xdpi="96"
   inkscape:export-ydpi="96">
  <defs
     id="defs2" />
  <sodipodi:namedview
     id="base"
     pagecolor="#ffffff"
     bordercolor="#666666"
     borderopacity="1.0"
     inkscape:pageopacity="0.0"
     inkscape:pageshadow="2"
     inkscape:zoom="1"
     inkscape:cx="172.26262"
     inkscape:cy="38.291929"
     inkscape:document-units="px"
     inkscape:current-layer="text837"
     showgrid="false"
     units="px"
     inkscape:showpageshadow="false"
     inkscape:window-width="1680"
     inkscape:window-height="987"
     inkscape:window-x="-8"
     inkscape:window-y="-8"
     inkscape:window-maximized="1" />
  <metadata
     id="metadata5">
    <rdf:RDF>
      <cc:Work
         rdf:about="">
        <dc:format>image/svg+xml</dc:format>
        <dc:type
           rdf:resource="http://purl.org/dc/dcmitype/StillImage" />
        <dc:title />
      </cc:Work>
    </rdf:RDF>
  </metadata>
  <g
     inkscape:label="text"
     inkscape:groupmode="layer"
     id="layer1"
     transform="translate(0,-244.08332)"
     style="display:none"
     sodipodi:insensitive="true">
    <text
       xml:space="preserve"
       style="font-style:normal;font-variant:normal;font-weight:600;font-stretch:condensed;font-size:6.3499999px;line-height:125%;font-family:'Barlow Condensed';-inkscape-font-specification:'Barlow Condensed, Semi-Bold Condensed';font-variant-ligatures:normal;font-variant-caps:normal;font-variant-numeric:normal;font-feature-settings:normal;text-align:start;letter-spacing:0px;word-spacing:0px;writing-mode:lr-tb;text-anchor:start;fill:#5c6370;fill-opacity:1;stroke:none;stroke-width:0.26458332px;stroke-linecap:butt;stroke-linejoin:miter;stroke-opacity:1"
       x="13.989976"
       y="286.1669"
       id="text839"><tspan
         sodipodi:role="line"
         id="tspan837"
         x="13.989976"
         y="286.1669"
         style="font-style:normal;font-variant:normal;font-weight:600;font-stretch:condensed;font-size:6.3499999px;font-family:'Barlow Condensed';-inkscape-font-specification:'Barlow Condensed, Semi-Bold Condensed';font-variant-ligatures:normal;font-variant-caps:normal;font-variant-numeric:normal;font-feature-settings:normal;text-align:start;writing-mode:lr-tb;text-anchor:start;fill:#5c6370;fill-opacity:1;stroke-width:0.26458332px">Az összes számlád még egy helyen</tspan></text>
    <text
       xml:space="preserve"
       style="font-style:normal;font-variant:normal;font-weight:600;font-stretch:condensed;font-size:25.39999962px;line-height:125%;font-family:'Barlow Condensed';-inkscape-font-specification:'Barlow Condensed, Semi-Bold Condensed';font-variant-ligatures:normal;font-variant-caps:normal;font-variant-numeric:normal;font-feature-settings:normal;text-align:start;letter-spacing:0px;word-spacing:0px;writing-mode:lr-tb;text-anchor:start;fill:#00b36f;fill-opacity:1;stroke:none;stroke-width:0.26458332px;stroke-linecap:butt;stroke-linejoin:miter;stroke-opacity:1"
       x="10.712357"
       y="271.94812"
       id="text817"><tspan
         sodipodi:role="line"
         id="tspan815"
         x="10.712357"
         y="271.94812"
         style="font-style:normal;font-variant:normal;font-weight:600;font-stretch:condensed;font-size:25.39999962px;font-family:'Barlow Condensed';-inkscape-font-specification:'Barlow Condensed, Semi-Bold Condensed';font-variant-ligatures:normal;font-variant-caps:normal;font-variant-numeric:normal;font-feature-settings:normal;text-align:start;writing-mode:lr-tb;text-anchor:start;fill:#00b36f;fill-opacity:1;stroke-width:0.26458332px">Díjnet</tspan></text>
    <text
       xml:space="preserve"
       style="font-style:normal;font-variant:normal;font-weight:600;font-stretch:condensed;font-size:25.39999962px;line-height:125%;font-family:'Barlow Condensed';-inkscape-font-specification:'Barlow Condensed, Semi-Bold Condensed';font-variant-ligatures:normal;font-variant-caps:normal;font-variant-numeric:normal;font-feature-settings:normal;text-align:start;letter-spacing:0px;word-spacing:0px;writing-mode:lr-tb;text-anchor:start;fill:#0063b1;fill-opacity:1;stroke:none;stroke-width:0.26458332px;stroke-linecap:butt;stroke-linejoin:miter;stroke-opacity:1"
       x="64.424286"
       y="271.94812"
       id="text817-7"><tspan
         sodipodi:role="line"
         id="tspan815-9"
         x="64.424286"
         y="271.94812"
         style="font-style:normal;font-variant:normal;font-weight:600;font-stretch:condensed;font-size:25.39999962px;font-family:'Barlow Condensed';-inkscape-font-specification:'Barlow Condensed, Semi-Bold Condensed';font-variant-ligatures:normal;font-variant-caps:normal;font-variant-numeric:normal;font-feature-settings:normal;text-align:start;writing-mode:lr-tb;text-anchor:start;fill:#0063b1;fill-opacity:1;stroke-width:0.26458332px">Bot</tspan></text>
    <rect
       style="opacity:1;fill:#5c6370;fill-opacity:1;fill-rule:nonzero;stroke:none;stroke-width:0.0705436;stroke-linecap:round;stroke-linejoin:round;stroke-miterlimit:4;stroke-dasharray:none;stroke-dashoffset:0;stroke-opacity:0.25098039"
       id="rect841"
       width="7.1633668"
       height="0.628142"
       x="57.381512"
       y="286.83832" />
    <text
       xml:space="preserve"
       style="font-style:normal;font-variant:normal;font-weight:600;font-stretch:condensed;font-size:4.23333311px;line-height:125%;font-family:'Barlow Condensed';-inkscape-font-specification:'Barlow Condensed, Semi-Bold Condensed';font-variant-ligatures:normal;font-variant-caps:normal;font-variant-numeric:normal;font-feature-settings:normal;text-align:start;letter-spacing:0px;word-spacing:0px;writing-mode:lr-tb;text-anchor:start;fill:#5c6370;fill-opacity:0.50196078;stroke:none;stroke-width:0.26458332px;stroke-linecap:butt;stroke-linejoin:miter;stroke-opacity:1"
       x="58.298538"
       y="277.08197"
       id="text845"><tspan
         sodipodi:role="line"
         id="tspan843"
         x="58.298538"
         y="277.08197"
         style="font-style:normal;font-variant:normal;font-weight:600;font-stretch:condensed;font-size:4.23333311px;font-family:'Barlow Condensed';-inkscape-font-specification:'Barlow Condensed, Semi-Bold Condensed';font-variant-ligatures:normal;font-variant-caps:normal;font-variant-numeric:normal;font-feature-settings:normal;text-align:start;writing-mode:lr-tb;text-anchor:start;fill:#5c6370;fill-opacity:0.50196078;stroke-width:0.26458332px">by</tspan></text>
    <text
       xml:space="preserve"
       style="font-style:normal;font-variant:normal;font-weight:600;font-stretch:condensed;font-size:4.23333311px;line-height:125%;font-family:'Barlow Condensed';-inkscape-font-specification:'Barlow Condensed, Semi-Bold Condensed';font-variant-ligatures:normal;font-variant-caps:normal;font-variant-numeric:normal;font-feature-settings:normal;text-align:start;letter-spacing:0px;word-spacing:0px;writing-mode:lr-tb;text-anchor:start;fill:#5c6370;fill-opacity:0.50196078;stroke:none;stroke-width:0.26458332px;stroke-linecap:butt;stroke-linejoin:miter;stroke-opacity:1"
       x="65.99485"
       y="277.08197"
       id="text845-1"><tspan
         sodipodi:role="line"
         id="tspan843-3"
         x="65.99485"
         y="277.08197"
         style="font-style:normal;font-variant:normal;font-weight:600;font-stretch:condensed;font-size:4.23333311px;font-family:'Barlow Condensed';-inkscape-font-specification:'Barlow Condensed, Semi-Bold Condensed';font-variant-ligatures:normal;font-variant-caps:normal;font-variant-numeric:normal;font-feature-settings:normal;text-align:start;writing-mode:lr-tb;text-anchor:start;fill:#5c6370;fill-opacity:0.50196078;stroke-width:0.26458332px">juzraai</tspan></text>
  </g>
  <g
     transform="translate(0,-244.08332)"
     id="g853"
     inkscape:groupmode="layer"
     inkscape:label="text 2 path"
     style="display:inline"
     sodipodi:insensitive="true">
    <g
       aria-label="Az összes számlád még egy helyen"
       style="font-style:normal;font-variant:normal;font-weight:600;font-stretch:condensed;font-size:6.3499999px;line-height:125%;font-family:'Barlow Condensed';-inkscape-font-specification:'Barlow Condensed, Semi-Bold Condensed';font-variant-ligatures:normal;font-variant-caps:normal;font-variant-numeric:normal;font-feature-settings:normal;text-align:start;letter-spacing:0px;word-spacing:0px;writing-mode:lr-tb;text-anchor:start;fill:#5c6370;fill-opacity:1;stroke:none;stroke-width:0.26458332px;stroke-linecap:butt;stroke-linejoin:miter;stroke-opacity:1"
       id="text833">
      <path
         d="m 16.225176,286.1669 q -0.0762,0 -0.08255,-0.0698 l -0.12065,-0.66675 q 0,-0.0317 -0.0381,-0.0317 h -0.92075 q -0.0381,0 -0.0381,0.0254 l -0.127,0.6731 q -0.0063,0.0698 -0.08255,0.0698 h -0.5842 q -0.08255,0 -0.0635,-0.0826 l 0.93345,-4.2926 q 0.0127,-0.0698 0.08255,-0.0698 h 0.67945 q 0.06985,0 0.08255,0.0698 l 0.9398,4.2926 v 0.0254 q 0,0.0571 -0.06985,0.0571 z m -1.07315,-1.37795 q -0.0063,0.0317 0.03175,0.0317 h 0.69215 q 0.0381,0 0.03175,-0.0317 l -0.34925,-1.9177 q -0.0064,-0.019 -0.01905,-0.019 -0.0127,0 -0.01905,0.019 z"
         style="font-style:normal;font-variant:normal;font-weight:600;font-stretch:condensed;font-size:6.3499999px;font-family:'Barlow Condensed';-inkscape-font-specification:'Barlow Condensed, Semi-Bold Condensed';font-variant-ligatures:normal;font-variant-caps:normal;font-variant-numeric:normal;font-feature-settings:normal;text-align:start;writing-mode:lr-tb;text-anchor:start;fill:#5c6370;fill-opacity:1;stroke-width:0.26458332px"
         id="path896"
         inkscape:connector-curvature="0" />
      <path
         d="m 17.294357,286.1669 q -0.03175,0 -0.05715,-0.019 -0.01905,-0.0254 -0.01905,-0.0571 v -0.53975 q 0,-0.0508 0.0254,-0.0953 l 1.0922,-1.8288 q 0.01905,-0.0381 -0.01905,-0.0381 h -0.99695 q -0.03175,0 -0.05715,-0.019 -0.01905,-0.0254 -0.01905,-0.0571 v -0.51435 q 0,-0.0317 0.01905,-0.0508 0.0254,-0.0254 0.05715,-0.0254 h 1.83515 q 0.03175,0 0.0508,0.0254 0.0254,0.019 0.0254,0.0508 v 0.53975 q 0,0.0508 -0.0254,0.0952 l -1.12395,1.8288 q -0.01905,0.0381 0.01905,0.0381 h 1.08585 q 0.03175,0 0.0508,0.0254 0.0254,0.019 0.0254,0.0508 v 0.51435 q 0,0.0317 -0.0254,0.0571 -0.01905,0.019 -0.0508,0.019 z"
         style="font-style:normal;font-variant:normal;font-weight:600;font-stretch:condensed;font-size:6.3499999px;font-family:'Barlow Condensed';-inkscape-font-specification:'Barlow Condensed, Semi-Bold Condensed';font-variant-ligatures:normal;font-variant-caps:normal;font-variant-numeric:normal;font-feature-settings:normal;text-align:start;writing-mode:lr-tb;text-anchor:start;fill:#5c6370;fill-opacity:1;stroke-width:0.26458332px"
         id="path898"
         inkscape:connector-curvature="0" />
      <path
         d="m 22.034036,286.2177 q -0.52705,0 -0.83185,-0.27305 -0.29845,-0.2794 -0.29845,-0.75565 v -1.28905 q 0,-0.46355 0.3048,-0.74295 0.3048,-0.28575 0.8255,-0.28575 0.52705,0 0.83185,0.28575 0.3048,0.2794 0.3048,0.74295 v 1.28905 q 0,0.47625 -0.3048,0.75565 -0.29845,0.27305 -0.83185,0.27305 z m 0,-0.635 q 0.1778,0 0.28575,-0.127 0.1143,-0.127 0.1143,-0.32385 v -1.17475 q 0,-0.19685 -0.1143,-0.32385 -0.10795,-0.127 -0.28575,-0.127 -0.1778,0 -0.28575,0.127 -0.10795,0.12065 -0.10795,0.32385 v 1.17475 q 0,0.2032 0.10795,0.3302 0.10795,0.12065 0.28575,0.12065 z m -0.4826,-3.13055 q -0.1651,0 -0.2794,-0.10795 -0.10795,-0.1143 -0.10795,-0.2921 0,-0.17145 0.10795,-0.2794 0.1143,-0.1143 0.2794,-0.1143 0.1651,0 0.2667,0.1143 0.10795,0.10795 0.10795,0.2794 0,0.1778 -0.10795,0.2921 -0.1016,0.10795 -0.2667,0.10795 z m 0.98425,0 q -0.17145,0 -0.2794,-0.10795 -0.10795,-0.1143 -0.10795,-0.2921 0,-0.17145 0.10795,-0.2794 0.10795,-0.1143 0.2794,-0.1143 0.1651,0 0.2667,0.1143 0.10795,0.10795 0.10795,0.2794 0,0.1778 -0.10795,0.2921 -0.1016,0.10795 -0.2667,0.10795 z"
         style="font-style:normal;font-variant:normal;font-weight:600;font-stretch:condensed;font-size:6.3499999px;font-family:'Barlow Condensed';-inkscape-font-specification:'Barlow Condensed, Semi-Bold Condensed';font-variant-ligatures:normal;font-variant-caps:normal;font-variant-numeric:normal;font-feature-settings:normal;text-align:start;writing-mode:lr-tb;text-anchor:start;fill:#5c6370;fill-opacity:1;stroke-width:0.26458332px"
         id="path900"
         inkscape:connector-curvature="0" />
      <path
         d="m 24.692405,286.205 q -0.50165,0 -0.8001,-0.2413 -0.29845,-0.2413 -0.29845,-0.65405 v -0.0444 q 0,-0.0317 0.01905,-0.0508 0.0254,-0.0254 0.05715,-0.0254 h 0.5461 q 0.0762,0 0.0762,0.0508 v 0.0571 q 0,0.1524 0.1143,0.254 0.12065,0.1016 0.2921,0.1016 0.1651,0 0.26035,-0.0953 0.09525,-0.0953 0.09525,-0.2413 0,-0.127 -0.08255,-0.20955 -0.08255,-0.0889 -0.1778,-0.13335 -0.09525,-0.0444 -0.3429,-0.14605 -0.36195,-0.1397 -0.5969,-0.3556 -0.2286,-0.2159 -0.2286,-0.64135 0,-0.4445 0.2794,-0.69215 0.28575,-0.254 0.76835,-0.254 0.4953,0 0.78105,0.2667 0.2921,0.26035 0.2921,0.70485 0,0.0317 -0.0254,0.0571 -0.01905,0.019 -0.0508,0.019 h -0.5334 q -0.03175,0 -0.05715,-0.0127 -0.01905,-0.019 -0.01905,-0.0444 v -0.0571 q 0,-0.1524 -0.10795,-0.254 -0.1016,-0.1016 -0.26035,-0.1016 -0.1651,0 -0.2667,0.10795 -0.09525,0.1016 -0.09525,0.24765 0,0.12065 0.0762,0.2032 0.0762,0.0826 0.17145,0.13335 0.09525,0.0444 0.3175,0.1397 0.2667,0.10795 0.4445,0.2159 0.18415,0.1016 0.3175,0.29845 0.1397,0.1905 0.1397,0.47625 0,0.42545 -0.29845,0.6731 -0.29845,0.24765 -0.80645,0.24765 z"
         style="font-style:normal;font-variant:normal;font-weight:600;font-stretch:condensed;font-size:6.3499999px;font-family:'Barlow Condensed';-inkscape-font-specification:'Barlow Condensed, Semi-Bold Condensed';font-variant-ligatures:normal;font-variant-caps:normal;font-variant-numeric:normal;font-feature-settings:normal;text-align:start;writing-mode:lr-tb;text-anchor:start;fill:#5c6370;fill-opacity:1;stroke-width:0.26458332px"
         id="path902"
         inkscape:connector-curvature="0" />
      <path
         d="m 27.123264,286.205 q -0.50165,0 -0.8001,-0.2413 -0.29845,-0.2413 -0.29845,-0.65405 v -0.0444 q 0,-0.0317 0.01905,-0.0508 0.0254,-0.0254 0.05715,-0.0254 h 0.5461 q 0.0762,0 0.0762,0.0508 v 0.0571 q 0,0.1524 0.1143,0.254 0.12065,0.1016 0.2921,0.1016 0.1651,0 0.26035,-0.0953 0.09525,-0.0953 0.09525,-0.2413 0,-0.127 -0.08255,-0.20955 -0.08255,-0.0889 -0.1778,-0.13335 -0.09525,-0.0444 -0.3429,-0.14605 -0.36195,-0.1397 -0.5969,-0.3556 -0.2286,-0.2159 -0.2286,-0.64135 0,-0.4445 0.2794,-0.69215 0.28575,-0.254 0.76835,-0.254 0.4953,0 0.78105,0.2667 0.2921,0.26035 0.2921,0.70485 0,0.0317 -0.0254,0.0571 -0.01905,0.019 -0.0508,0.019 h -0.5334 q -0.03175,0 -0.05715,-0.0127 -0.01905,-0.019 -0.01905,-0.0444 v -0.0571 q 0,-0.1524 -0.10795,-0.254 -0.1016,-0.1016 -0.26035,-0.1016 -0.1651,0 -0.2667,0.10795 -0.09525,0.1016 -0.09525,0.24765 0,0.12065 0.0762,0.2032 0.0762,0.0826 0.17145,0.13335 0.09525,0.0444 0.3175,0.1397 0.2667,0.10795 0.4445,0.2159 0.18415,0.1016 0.3175,0.29845 0.1397,0.1905 0.1397,0.47625 0,0.42545 -0.29845,0.6731 -0.29845,0.24765 -0.80645,0.24765 z"
         style="font-style:normal;font-variant:normal;font-weight:600;font-stretch:condensed;font-size:6.3499999px;font-family:'Barlow Condensed';-inkscape-font-specification:'Barlow Condensed, Semi-Bold Condensed';font-variant-ligatures:normal;font-variant-caps:normal;font-variant-numeric:normal;font-feature-settings:normal;text-align:start;writing-mode:lr-tb;text-anchor:start;fill:#5c6370;fill-opacity:1;stroke-width:0.26458332px"
         id="path904"
         inkscape:connector-curvature="0" />
      <path
         d="m 28.592892,286.1669 q -0.03175,0 -0.05715,-0.019 -0.01905,-0.0254 -0.01905,-0.0571 v -0.53975 q 0,-0.0508 0.0254,-0.0953 l 1.0922,-1.8288 q 0.01905,-0.0381 -0.01905,-0.0381 h -0.99695 q -0.03175,0 -0.05715,-0.019 -0.01905,-0.0254 -0.01905,-0.0571 v -0.51435 q 0,-0.0317 0.01905,-0.0508 0.0254,-0.0254 0.05715,-0.0254 h 1.83515 q 0.03175,0 0.0508,0.0254 0.0254,0.019 0.0254,0.0508 v 0.53975 q 0,0.0508 -0.0254,0.0952 l -1.12395,1.8288 q -0.01905,0.0381 0.01905,0.0381 h 1.08585 q 0.03175,0 0.0508,0.0254 0.0254,0.019 0.0254,0.0508 v 0.51435 q 0,0.0317 -0.0254,0.0571 -0.01905,0.019 -0.0508,0.019 z"
         style="font-style:normal;font-variant:normal;font-weight:600;font-stretch:condensed;font-size:6.3499999px;font-family:'Barlow Condensed';-inkscape-font-specification:'Barlow Condensed, Semi-Bold Condensed';font-variant-ligatures:normal;font-variant-caps:normal;font-variant-numeric:normal;font-feature-settings:normal;text-align:start;writing-mode:lr-tb;text-anchor:start;fill:#5c6370;fill-opacity:1;stroke-width:0.26458332px"
         id="path906"
         inkscape:connector-curvature="0" />
      <path
         d="m 33.191483,284.7445 q 0,0.0317 -0.0254,0.0571 -0.01905,0.019 -0.0508,0.019 h -1.4097 q -0.03175,0 -0.03175,0.0317 v 0.2794 q 0,0.2032 0.10795,0.3302 0.10795,0.127 0.2794,0.127 0.14605,0 0.24765,-0.0952 0.1016,-0.0953 0.1397,-0.2413 0.01905,-0.0698 0.08255,-0.0635 l 0.5715,0.0381 q 0.0762,0.0127 0.06985,0.0825 -0.0508,0.4318 -0.33655,0.6731 -0.2794,0.23495 -0.7747,0.23495 -0.5207,0 -0.8255,-0.27305 -0.29845,-0.2794 -0.29845,-0.75565 v -1.28905 q 0,-0.46355 0.29845,-0.74295 0.3048,-0.28575 0.8255,-0.28575 0.5207,0 0.8255,0.28575 0.3048,0.2794 0.3048,0.74295 z m -1.1303,-1.23825 q -0.17145,0 -0.2794,0.127 -0.10795,0.127 -0.10795,0.32385 v 0.2794 q 0,0.0318 0.03175,0.0318 h 0.71755 q 0.03175,0 0.03175,-0.0318 v -0.2794 q 0,-0.2032 -0.10795,-0.32385 -0.10795,-0.127 -0.28575,-0.127 z"
         style="font-style:normal;font-variant:normal;font-weight:600;font-stretch:condensed;font-size:6.3499999px;font-family:'Barlow Condensed';-inkscape-font-specification:'Barlow Condensed, Semi-Bold Condensed';font-variant-ligatures:normal;font-variant-caps:normal;font-variant-numeric:normal;font-feature-settings:normal;text-align:start;writing-mode:lr-tb;text-anchor:start;fill:#5c6370;fill-opacity:1;stroke-width:0.26458332px"
         id="path908"
         inkscape:connector-curvature="0" />
      <path
         d="m 34.688694,286.205 q -0.50165,0 -0.8001,-0.2413 -0.29845,-0.2413 -0.29845,-0.65405 v -0.0444 q 0,-0.0317 0.01905,-0.0508 0.0254,-0.0254 0.05715,-0.0254 h 0.5461 q 0.0762,0 0.0762,0.0508 v 0.0571 q 0,0.1524 0.1143,0.254 0.12065,0.1016 0.2921,0.1016 0.1651,0 0.26035,-0.0953 0.09525,-0.0953 0.09525,-0.2413 0,-0.127 -0.08255,-0.20955 -0.08255,-0.0889 -0.1778,-0.13335 -0.09525,-0.0444 -0.3429,-0.14605 -0.36195,-0.1397 -0.5969,-0.3556 -0.2286,-0.2159 -0.2286,-0.64135 0,-0.4445 0.2794,-0.69215 0.28575,-0.254 0.76835,-0.254 0.4953,0 0.78105,0.2667 0.2921,0.26035 0.2921,0.70485 0,0.0317 -0.0254,0.0571 -0.01905,0.019 -0.0508,0.019 h -0.5334 q -0.03175,0 -0.05715,-0.0127 -0.01905,-0.019 -0.01905,-0.0444 v -0.0571 q 0,-0.1524 -0.10795,-0.254 -0.1016,-0.1016 -0.26035,-0.1016 -0.1651,0 -0.2667,0.10795 -0.09525,0.1016 -0.09525,0.24765 0,0.12065 0.0762,0.2032 0.0762,0.0826 0.17145,0.13335 0.09525,0.0444 0.3175,0.1397 0.2667,0.10795 0.4445,0.2159 0.18415,0.1016 0.3175,0.29845 0.1397,0.1905 0.1397,0.47625 0,0.42545 -0.29845,0.6731 -0.29845,0.24765 -0.80645,0.24765 z"
         style="font-style:normal;font-variant:normal;font-weight:600;font-stretch:condensed;font-size:6.3499999px;font-family:'Barlow Condensed';-inkscape-font-specification:'Barlow Condensed, Semi-Bold Condensed';font-variant-ligatures:normal;font-variant-caps:normal;font-variant-numeric:normal;font-feature-settings:normal;text-align:start;writing-mode:lr-tb;text-anchor:start;fill:#5c6370;fill-opacity:1;stroke-width:0.26458332px"
         id="path910"
         inkscape:connector-curvature="0" />
      <path
         d="m 38.48381,286.205 q -0.50165,0 -0.8001,-0.2413 -0.29845,-0.2413 -0.29845,-0.65405 v -0.0444 q 0,-0.0317 0.01905,-0.0508 0.0254,-0.0254 0.05715,-0.0254 h 0.5461 q 0.0762,0 0.0762,0.0508 v 0.0571 q 0,0.1524 0.1143,0.254 0.12065,0.1016 0.2921,0.1016 0.1651,0 0.26035,-0.0953 0.09525,-0.0953 0.09525,-0.2413 0,-0.127 -0.08255,-0.20955 -0.08255,-0.0889 -0.1778,-0.13335 -0.09525,-0.0444 -0.3429,-0.14605 -0.36195,-0.1397 -0.5969,-0.3556 -0.2286,-0.2159 -0.2286,-0.64135 0,-0.4445 0.2794,-0.69215 0.28575,-0.254 0.76835,-0.254 0.4953,0 0.78105,0.2667 0.2921,0.26035 0.2921,0.70485 0,0.0317 -0.0254,0.0571 -0.01905,0.019 -0.0508,0.019 h -0.5334 q -0.03175,0 -0.05715,-0.0127 -0.01905,-0.019 -0.01905,-0.0444 v -0.0571 q 0,-0.1524 -0.10795,-0.254 -0.1016,-0.1016 -0.26035,-0.1016 -0.1651,0 -0.2667,0.10795 -0.09525,0.1016 -0.09525,0.24765 0,0.12065 0.0762,0.2032 0.0762,0.0826 0.17145,0.13335 0.09525,0.0444 0.3175,0.1397 0.2667,0.10795 0.4445,0.2159 0.18415,0.1016 0.3175,0.29845 0.1397,0.1905 0.1397,0.47625 0,0.42545 -0.29845,0.6731 -0.29845,0.24765 -0.80645,0.24765 z"
         style="font-style:normal;font-variant:normal;font-weight:600;font-stretch:condensed;font-size:6.3499999px;font-family:'Barlow Condensed';-inkscape-font-specification:'Barlow Condensed, Semi-Bold Condensed';font-variant-ligatures:normal;font-variant-caps:normal;font-variant-numeric:normal;font-feature-settings:normal;text-align:start;writing-mode:lr-tb;text-anchor:start;fill:#5c6370;fill-opacity:1;stroke-width:0.26458332px"
         id="path912"
         inkscape:connector-curvature="0" />
      <path
         d="m 39.953439,286.1669 q -0.03175,0 -0.05715,-0.019 -0.01905,-0.0254 -0.01905,-0.0571 v -0.53975 q 0,-0.0508 0.0254,-0.0953 l 1.0922,-1.8288 q 0.01905,-0.0381 -0.01905,-0.0381 h -0.99695 q -0.03175,0 -0.05715,-0.019 -0.01905,-0.0254 -0.01905,-0.0571 v -0.51435 q 0,-0.0317 0.01905,-0.0508 0.0254,-0.0254 0.05715,-0.0254 h 1.83515 q 0.03175,0 0.0508,0.0254 0.0254,0.019 0.0254,0.0508 v 0.53975 q 0,0.0508 -0.0254,0.0952 l -1.12395,1.8288 q -0.01905,0.0381 0.01905,0.0381 h 1.08585 q 0.03175,0 0.0508,0.0254 0.0254,0.019 0.0254,0.0508 v 0.51435 q 0,0.0317 -0.0254,0.0571 -0.01905,0.019 -0.0508,0.019 z"
         style="font-style:normal;font-variant:normal;font-weight:600;font-stretch:condensed;font-size:6.3499999px;font-family:'Barlow Condensed';-inkscape-font-specification:'Barlow Condensed, Semi-Bold Condensed';font-variant-ligatures:normal;font-variant-caps:normal;font-variant-numeric:normal;font-feature-settings:normal;text-align:start;writing-mode:lr-tb;text-anchor:start;fill:#5c6370;fill-opacity:1;stroke-width:0.26458332px"
         id="path914"
         inkscape:connector-curvature="0" />
      <path
         d="m 43.440779,282.87125 q 0.50165,0 0.8128,0.2921 0.31115,0.2921 0.31115,0.76835 v 2.159 q 0,0.0317 -0.0254,0.0571 -0.01905,0.019 -0.0508,0.019 h -0.5842 q -0.03175,0 -0.05715,-0.019 -0.01905,-0.0254 -0.01905,-0.0571 v -0.1143 q 0,-0.019 -0.0127,-0.0254 -0.0127,-0.006 -0.0254,0.0127 -0.2286,0.254 -0.64135,0.254 -0.36195,0 -0.64135,-0.2032 -0.27305,-0.20955 -0.27305,-0.75565 0,-0.5715 0.3302,-0.8128 0.33655,-0.2413 0.90805,-0.2413 h 0.32385 q 0.03175,0 0.03175,-0.0317 v -0.1651 q 0,-0.2286 -0.1143,-0.36195 -0.1143,-0.1397 -0.28575,-0.1397 -0.13335,0 -0.22225,0.0889 -0.0889,0.0826 -0.10795,0.2286 -0.0063,0.0762 -0.08255,0.0762 h -0.61595 q -0.0762,0 -0.06985,-0.0762 0.03175,-0.4318 0.33655,-0.69215 0.31115,-0.26035 0.7747,-0.26035 z m -0.0889,2.73685 q 0.1905,0 0.3302,-0.12065 0.14605,-0.12065 0.14605,-0.33655 v -0.36195 q 0,-0.0317 -0.03175,-0.0317 h -0.32385 q -0.22225,0 -0.3556,0.12065 -0.127,0.1143 -0.127,0.33655 0,0.19685 0.1016,0.29845 0.1016,0.0952 0.26035,0.0952 z m -0.2413,-3.14325 q -0.04445,0 -0.0635,-0.0254 -0.01905,-0.0254 0.0064,-0.0635 l 0.37465,-0.65405 q 0.0254,-0.0508 0.09525,-0.0508 h 0.5334 q 0.0508,0 0.0635,0.0317 0.0127,0.0254 -0.0127,0.0635 l -0.4699,0.65405 q -0.03175,0.0445 -0.0889,0.0445 z"
         style="font-style:normal;font-variant:normal;font-weight:600;font-stretch:condensed;font-size:6.3499999px;font-family:'Barlow Condensed';-inkscape-font-specification:'Barlow Condensed, Semi-Bold Condensed';font-variant-ligatures:normal;font-variant-caps:normal;font-variant-numeric:normal;font-feature-settings:normal;text-align:start;writing-mode:lr-tb;text-anchor:start;fill:#5c6370;fill-opacity:1;stroke-width:0.26458332px"
         id="path916"
         inkscape:connector-curvature="0" />
      <path
         d="m 47.92765,282.87125 q 0.41275,0 0.6223,0.2921 0.2159,0.28575 0.2159,0.8001 v 2.12725 q 0,0.0317 -0.0254,0.0571 -0.01905,0.019 -0.0508,0.019 H 48.1118 q -0.03175,0 -0.05715,-0.019 -0.01905,-0.0254 -0.01905,-0.0571 v -2.07645 q 0,-0.2413 -0.09525,-0.37465 -0.09525,-0.13335 -0.26035,-0.13335 -0.1778,0 -0.2794,0.13335 -0.1016,0.13335 -0.1016,0.3683 v 2.0828 q 0,0.0317 -0.0254,0.0571 -0.01905,0.019 -0.0508,0.019 h -0.57785 q -0.03175,0 -0.05715,-0.019 -0.01905,-0.0254 -0.01905,-0.0571 v -2.07645 q 0,-0.2413 -0.1016,-0.37465 -0.09525,-0.13335 -0.254,-0.13335 -0.1778,0 -0.2794,0.13335 -0.1016,0.13335 -0.1016,0.3683 v 2.0828 q 0,0.0317 -0.0254,0.0571 -0.01905,0.019 -0.0508,0.019 H 45.1781 q -0.03175,0 -0.05715,-0.019 -0.01905,-0.0254 -0.01905,-0.0571 v -3.09245 q 0,-0.0317 0.01905,-0.0508 0.0254,-0.0254 0.05715,-0.0254 h 0.57785 q 0.03175,0 0.0508,0.0254 0.0254,0.019 0.0254,0.0508 v 0.1016 q 0,0.019 0.0127,0.0254 0.0127,0.006 0.0254,-0.0127 0.127,-0.127 0.28575,-0.18415 0.15875,-0.0572 0.31115,-0.0572 0.4699,0 0.69215,0.40005 0.01905,0.0254 0.05715,-0.019 0.127,-0.2032 0.3175,-0.2921 0.19685,-0.0889 0.3937,-0.0889 z"
         style="font-style:normal;font-variant:normal;font-weight:600;font-stretch:condensed;font-size:6.3499999px;font-family:'Barlow Condensed';-inkscape-font-specification:'Barlow Condensed, Semi-Bold Condensed';font-variant-ligatures:normal;font-variant-caps:normal;font-variant-numeric:normal;font-feature-settings:normal;text-align:start;writing-mode:lr-tb;text-anchor:start;fill:#5c6370;fill-opacity:1;stroke-width:0.26458332px"
         id="path918"
         inkscape:connector-curvature="0" />
      <path
         d="m 49.369497,286.1669 q -0.03175,0 -0.05715,-0.019 -0.01905,-0.0254 -0.01905,-0.0571 v -4.2926 q 0,-0.0317 0.01905,-0.0508 0.0254,-0.0254 0.05715,-0.0254 h 0.5842 q 0.03175,0 0.0508,0.0254 0.0254,0.019 0.0254,0.0508 v 4.2926 q 0,0.0317 -0.0254,0.0571 -0.01905,0.019 -0.0508,0.019 z"
         style="font-style:normal;font-variant:normal;font-weight:600;font-stretch:condensed;font-size:6.3499999px;font-family:'Barlow Condensed';-inkscape-font-specification:'Barlow Condensed, Semi-Bold Condensed';font-variant-ligatures:normal;font-variant-caps:normal;font-variant-numeric:normal;font-feature-settings:normal;text-align:start;writing-mode:lr-tb;text-anchor:start;fill:#5c6370;fill-opacity:1;stroke-width:0.26458332px"
         id="path920"
         inkscape:connector-curvature="0" />
      <path
         d="m 51.675935,282.87125 q 0.50165,0 0.8128,0.2921 0.31115,0.2921 0.31115,0.76835 v 2.159 q 0,0.0317 -0.0254,0.0571 -0.01905,0.019 -0.0508,0.019 h -0.5842 q -0.03175,0 -0.05715,-0.019 -0.01905,-0.0254 -0.01905,-0.0571 v -0.1143 q 0,-0.019 -0.0127,-0.0254 -0.0127,-0.006 -0.0254,0.0127 -0.2286,0.254 -0.64135,0.254 -0.36195,0 -0.64135,-0.2032 -0.27305,-0.20955 -0.27305,-0.75565 0,-0.5715 0.3302,-0.8128 0.33655,-0.2413 0.90805,-0.2413 h 0.32385 q 0.03175,0 0.03175,-0.0317 v -0.1651 q 0,-0.2286 -0.1143,-0.36195 -0.1143,-0.1397 -0.28575,-0.1397 -0.13335,0 -0.22225,0.0889 -0.0889,0.0826 -0.10795,0.2286 -0.0064,0.0762 -0.08255,0.0762 h -0.61595 q -0.0762,0 -0.06985,-0.0762 0.03175,-0.4318 0.33655,-0.69215 0.31115,-0.26035 0.7747,-0.26035 z m -0.0889,2.73685 q 0.1905,0 0.3302,-0.12065 0.14605,-0.12065 0.14605,-0.33655 v -0.36195 q 0,-0.0317 -0.03175,-0.0317 h -0.32385 q -0.22225,0 -0.3556,0.12065 -0.127,0.1143 -0.127,0.33655 0,0.19685 0.1016,0.29845 0.1016,0.0952 0.26035,0.0952 z m -0.2413,-3.14325 q -0.04445,0 -0.0635,-0.0254 -0.01905,-0.0254 0.0063,-0.0635 l 0.37465,-0.65405 q 0.0254,-0.0508 0.09525,-0.0508 h 0.5334 q 0.0508,0 0.0635,0.0317 0.0127,0.0254 -0.0127,0.0635 l -0.4699,0.65405 q -0.03175,0.0445 -0.0889,0.0445 z"
         style="font-style:normal;font-variant:normal;font-weight:600;font-stretch:condensed;font-size:6.3499999px;font-family:'Barlow Condensed';-inkscape-font-specification:'Barlow Condensed, Semi-Bold Condensed';font-variant-ligatures:normal;font-variant-caps:normal;font-variant-numeric:normal;font-feature-settings:normal;text-align:start;writing-mode:lr-tb;text-anchor:start;fill:#5c6370;fill-opacity:1;stroke-width:0.26458332px"
         id="path922"
         inkscape:connector-curvature="0" />
      <path
         d="m 54.791207,281.7981 q 0,-0.0317 0.01905,-0.0508 0.0254,-0.0254 0.05715,-0.0254 h 0.5842 q 0.03175,0 0.0508,0.0254 0.0254,0.019 0.0254,0.0508 v 4.2926 q 0,0.0317 -0.0254,0.0571 -0.01905,0.019 -0.0508,0.019 h -0.5842 q -0.03175,0 -0.05715,-0.019 -0.01905,-0.0254 -0.01905,-0.0571 v -0.1016 q 0,-0.019 -0.0127,-0.019 -0.0127,-0.006 -0.0254,0.006 -0.22225,0.2413 -0.5842,0.2413 -0.41275,0 -0.64135,-0.2794 -0.2286,-0.2794 -0.2413,-0.7493 v -1.2954 q 0.0127,-0.47625 0.2413,-0.7493 0.23495,-0.27305 0.64135,-0.27305 0.36195,0 0.5842,0.2413 0.0127,0.0127 0.0254,0.0127 0.0127,-0.006 0.0127,-0.0254 z m -0.38735,3.7846 q 0.17145,0 0.2794,-0.127 0.10795,-0.127 0.10795,-0.33655 v -1.14935 q 0,-0.20955 -0.10795,-0.33655 -0.10795,-0.127 -0.2794,-0.127 -0.17145,0 -0.2794,0.127 -0.10795,0.127 -0.10795,0.33655 v 1.14935 q 0,0.2032 0.10795,0.33655 0.10795,0.127 0.2794,0.127 z"
         style="font-style:normal;font-variant:normal;font-weight:600;font-stretch:condensed;font-size:6.3499999px;font-family:'Barlow Condensed';-inkscape-font-specification:'Barlow Condensed, Semi-Bold Condensed';font-variant-ligatures:normal;font-variant-caps:normal;font-variant-numeric:normal;font-feature-settings:normal;text-align:start;writing-mode:lr-tb;text-anchor:start;fill:#5c6370;fill-opacity:1;stroke-width:0.26458332px"
         id="path924"
         inkscape:connector-curvature="0" />
      <path
         d="m 60.20597,282.87125 q 0.41275,0 0.6223,0.2921 0.2159,0.28575 0.2159,0.8001 v 2.12725 q 0,0.0317 -0.0254,0.0571 -0.01905,0.019 -0.0508,0.019 h -0.57785 q -0.03175,0 -0.05715,-0.019 -0.01905,-0.0254 -0.01905,-0.0571 v -2.07645 q 0,-0.2413 -0.09525,-0.37465 -0.09525,-0.13335 -0.26035,-0.13335 -0.1778,0 -0.2794,0.13335 -0.1016,0.13335 -0.1016,0.3683 v 2.0828 q 0,0.0317 -0.0254,0.0571 -0.01905,0.019 -0.0508,0.019 h -0.57785 q -0.03175,0 -0.05715,-0.019 -0.01905,-0.0254 -0.01905,-0.0571 v -2.07645 q 0,-0.2413 -0.1016,-0.37465 -0.09525,-0.13335 -0.254,-0.13335 -0.1778,0 -0.2794,0.13335 -0.1016,0.13335 -0.1016,0.3683 v 2.0828 q 0,0.0317 -0.0254,0.0571 -0.01905,0.019 -0.0508,0.019 h -0.57785 q -0.03175,0 -0.05715,-0.019 -0.01905,-0.0254 -0.01905,-0.0571 v -3.09245 q 0,-0.0317 0.01905,-0.0508 0.0254,-0.0254 0.05715,-0.0254 h 0.57785 q 0.03175,0 0.0508,0.0254 0.0254,0.019 0.0254,0.0508 v 0.1016 q 0,0.019 0.0127,0.0254 0.0127,0.006 0.0254,-0.0127 0.127,-0.127 0.28575,-0.18415 0.15875,-0.0572 0.31115,-0.0572 0.4699,0 0.69215,0.40005 0.01905,0.0254 0.05715,-0.019 0.127,-0.2032 0.3175,-0.2921 0.19685,-0.0889 0.3937,-0.0889 z"
         style="font-style:normal;font-variant:normal;font-weight:600;font-stretch:condensed;font-size:6.3499999px;font-family:'Barlow Condensed';-inkscape-font-specification:'Barlow Condensed, Semi-Bold Condensed';font-variant-ligatures:normal;font-variant-caps:normal;font-variant-numeric:normal;font-feature-settings:normal;text-align:start;writing-mode:lr-tb;text-anchor:start;fill:#5c6370;fill-opacity:1;stroke-width:0.26458332px"
         id="path926"
         inkscape:connector-curvature="0" />
      <path
         d="m 63.800467,284.7445 q 0,0.0317 -0.0254,0.0571 -0.01905,0.019 -0.0508,0.019 h -1.4097 q -0.03175,0 -0.03175,0.0317 v 0.2794 q 0,0.2032 0.10795,0.3302 0.10795,0.127 0.2794,0.127 0.14605,0 0.24765,-0.0952 0.1016,-0.0953 0.1397,-0.2413 0.01905,-0.0698 0.08255,-0.0635 l 0.5715,0.0381 q 0.0762,0.0127 0.06985,0.0825 -0.0508,0.4318 -0.33655,0.6731 -0.2794,0.23495 -0.7747,0.23495 -0.5207,0 -0.8255,-0.27305 -0.29845,-0.2794 -0.29845,-0.75565 v -1.28905 q 0,-0.46355 0.29845,-0.74295 0.3048,-0.28575 0.8255,-0.28575 0.5207,0 0.8255,0.28575 0.3048,0.2794 0.3048,0.74295 z m -1.1303,-1.23825 q -0.17145,0 -0.2794,0.127 -0.10795,0.127 -0.10795,0.32385 v 0.2794 q 0,0.0318 0.03175,0.0318 h 0.71755 q 0.03175,0 0.03175,-0.0318 v -0.2794 q 0,-0.2032 -0.10795,-0.32385 -0.10795,-0.127 -0.28575,-0.127 z m -0.3302,-1.0414 q -0.04445,0 -0.0635,-0.0254 -0.01905,-0.0254 0.0064,-0.0635 l 0.37465,-0.65405 q 0.0254,-0.0508 0.09525,-0.0508 h 0.5334 q 0.0508,0 0.0635,0.0317 0.0127,0.0254 -0.0127,0.0635 l -0.4699,0.65405 q -0.03175,0.0445 -0.0889,0.0445 z"
         style="font-style:normal;font-variant:normal;font-weight:600;font-stretch:condensed;font-size:6.3499999px;font-family:'Barlow Condensed';-inkscape-font-specification:'Barlow Condensed, Semi-Bold Condensed';font-variant-ligatures:normal;font-variant-caps:normal;font-variant-numeric:normal;font-feature-settings:normal;text-align:start;writing-mode:lr-tb;text-anchor:start;fill:#5c6370;fill-opacity:1;stroke-width:0.26458332px"
         id="path928"
         inkscape:connector-curvature="0" />
      <path
         d="m 65.754876,282.99825 q 0,-0.0317 0.01905,-0.0508 0.0254,-0.0254 0.05715,-0.0254 h 0.5842 q 0.03175,0 0.0508,0.0254 0.0254,0.019 0.0254,0.0508 v 3.048 q 0,0.6858 -0.31115,1.0541 -0.31115,0.37465 -1.11125,0.37465 -0.1397,0 -0.20955,-0.006 -0.0762,-0.006 -0.0762,-0.0826 v -0.48895 q 0,-0.0826 0.08255,-0.0699 0.36195,0.006 0.55245,-0.0889 0.19685,-0.0953 0.2667,-0.2794 0.06985,-0.18415 0.06985,-0.4826 v -0.0699 q 0,-0.019 -0.0127,-0.019 -0.0127,-0.006 -0.0254,0.0127 -0.20955,0.27305 -0.5969,0.27305 -0.42545,0 -0.6477,-0.27305 -0.22225,-0.2794 -0.22225,-0.75565 v -1.2446 q 0,-0.48895 0.22225,-0.75565 0.2286,-0.27305 0.6477,-0.27305 0.38735,0 0.5969,0.27305 0.0127,0.019 0.0254,0.019 0.0127,-0.006 0.0127,-0.0254 z m -0.381,2.54 q 0.17145,0 0.27305,-0.12065 0.10795,-0.127 0.10795,-0.32385 v -1.13665 q 0,-0.2032 -0.10795,-0.32385 -0.1016,-0.127 -0.27305,-0.127 -0.17145,0 -0.2794,0.127 -0.10795,0.127 -0.10795,0.32385 v 1.13665 q 0,0.19685 0.10795,0.32385 0.10795,0.12065 0.2794,0.12065 z"
         style="font-style:normal;font-variant:normal;font-weight:600;font-stretch:condensed;font-size:6.3499999px;font-family:'Barlow Condensed';-inkscape-font-specification:'Barlow Condensed, Semi-Bold Condensed';font-variant-ligatures:normal;font-variant-caps:normal;font-variant-numeric:normal;font-feature-settings:normal;text-align:start;writing-mode:lr-tb;text-anchor:start;fill:#5c6370;fill-opacity:1;stroke-width:0.26458332px"
         id="path930"
         inkscape:connector-curvature="0" />
      <path
         d="m 70.510135,284.7445 q 0,0.0317 -0.0254,0.0571 -0.01905,0.019 -0.0508,0.019 h -1.4097 q -0.03175,0 -0.03175,0.0317 v 0.2794 q 0,0.2032 0.10795,0.3302 0.10795,0.127 0.2794,0.127 0.14605,0 0.24765,-0.0952 0.1016,-0.0953 0.1397,-0.2413 0.01905,-0.0698 0.08255,-0.0635 l 0.5715,0.0381 q 0.0762,0.0127 0.06985,0.0825 -0.0508,0.4318 -0.33655,0.6731 -0.2794,0.23495 -0.7747,0.23495 -0.5207,0 -0.8255,-0.27305 -0.29845,-0.2794 -0.29845,-0.75565 v -1.28905 q 0,-0.46355 0.29845,-0.74295 0.3048,-0.28575 0.8255,-0.28575 0.5207,0 0.8255,0.28575 0.3048,0.2794 0.3048,0.74295 z m -1.1303,-1.23825 q -0.17145,0 -0.2794,0.127 -0.10795,0.127 -0.10795,0.32385 v 0.2794 q 0,0.0318 0.03175,0.0318 h 0.71755 q 0.03175,0 0.03175,-0.0318 v -0.2794 q 0,-0.2032 -0.10795,-0.32385 -0.10795,-0.127 -0.28575,-0.127 z"
         style="font-style:normal;font-variant:normal;font-weight:600;font-stretch:condensed;font-size:6.3499999px;font-family:'Barlow Condensed';-inkscape-font-specification:'Barlow Condensed, Semi-Bold Condensed';font-variant-ligatures:normal;font-variant-caps:normal;font-variant-numeric:normal;font-feature-settings:normal;text-align:start;writing-mode:lr-tb;text-anchor:start;fill:#5c6370;fill-opacity:1;stroke-width:0.26458332px"
         id="path932"
         inkscape:connector-curvature="0" />
      <path
         d="m 72.464547,282.99825 q 0,-0.0317 0.01905,-0.0508 0.0254,-0.0254 0.05715,-0.0254 h 0.5842 q 0.03175,0 0.0508,0.0254 0.0254,0.019 0.0254,0.0508 v 3.048 q 0,0.6858 -0.31115,1.0541 -0.31115,0.37465 -1.11125,0.37465 -0.1397,0 -0.20955,-0.006 -0.0762,-0.006 -0.0762,-0.0826 v -0.48895 q 0,-0.0826 0.08255,-0.0699 0.36195,0.006 0.55245,-0.0889 0.19685,-0.0953 0.2667,-0.2794 0.06985,-0.18415 0.06985,-0.4826 v -0.0699 q 0,-0.019 -0.0127,-0.019 -0.0127,-0.006 -0.0254,0.0127 -0.20955,0.27305 -0.5969,0.27305 -0.42545,0 -0.6477,-0.27305 -0.22225,-0.2794 -0.22225,-0.75565 v -1.2446 q 0,-0.48895 0.22225,-0.75565 0.2286,-0.27305 0.6477,-0.27305 0.38735,0 0.5969,0.27305 0.0127,0.019 0.0254,0.019 0.0127,-0.006 0.0127,-0.0254 z m -0.381,2.54 q 0.17145,0 0.27305,-0.12065 0.10795,-0.127 0.10795,-0.32385 v -1.13665 q 0,-0.2032 -0.10795,-0.32385 -0.1016,-0.127 -0.27305,-0.127 -0.17145,0 -0.2794,0.127 -0.10795,0.127 -0.10795,0.32385 v 1.13665 q 0,0.19685 0.10795,0.32385 0.10795,0.12065 0.2794,0.12065 z"
         style="font-style:normal;font-variant:normal;font-weight:600;font-stretch:condensed;font-size:6.3499999px;font-family:'Barlow Condensed';-inkscape-font-specification:'Barlow Condensed, Semi-Bold Condensed';font-variant-ligatures:normal;font-variant-caps:normal;font-variant-numeric:normal;font-feature-settings:normal;text-align:start;writing-mode:lr-tb;text-anchor:start;fill:#5c6370;fill-opacity:1;stroke-width:0.26458332px"
         id="path934"
         inkscape:connector-curvature="0" />
      <path
         d="m 73.651202,287.43055 q -0.0381,0 -0.0381,-0.0762 v -0.4572 q 0,-0.0762 0.03175,-0.0762 h 0.03175 q 0.20955,0 0.3302,-0.0508 0.12065,-0.0508 0.1905,-0.1905 0.0762,-0.13335 0.10795,-0.3937 l -0.0063,-0.0381 -0.8001,-3.14325 v -0.0254 q 0,-0.0571 0.06985,-0.0571 h 0.6223 q 0.0762,0 0.08255,0.0698 l 0.38735,2.0955 q 0.0063,0.019 0.01905,0.019 0.0127,0 0.01905,-0.019 l 0.37465,-2.0955 q 0.0064,-0.0698 0.08255,-0.0698 l 0.62865,0.006 q 0.0889,0 0.06985,0.0825 l -0.8509,3.33375 q -0.12065,0.45085 -0.254,0.6731 -0.13335,0.22225 -0.37465,0.3175 -0.2413,0.0952 -0.6858,0.0952 z"
         style="font-style:normal;font-variant:normal;font-weight:600;font-stretch:condensed;font-size:6.3499999px;font-family:'Barlow Condensed';-inkscape-font-specification:'Barlow Condensed, Semi-Bold Condensed';font-variant-ligatures:normal;font-variant-caps:normal;font-variant-numeric:normal;font-feature-settings:normal;text-align:start;writing-mode:lr-tb;text-anchor:start;fill:#5c6370;fill-opacity:1;stroke-width:0.26458332px"
         id="path936"
         inkscape:connector-curvature="0" />
      <path
         d="m 78.899872,282.87125 q 0.41275,0 0.6223,0.2794 0.2159,0.27305 0.2159,0.78105 v 2.159 q 0,0.0317 -0.0254,0.0571 -0.01905,0.019 -0.0508,0.019 h -0.5842 q -0.03175,0 -0.05715,-0.019 -0.01905,-0.0254 -0.01905,-0.0571 v -2.10185 q 0,-0.2286 -0.09525,-0.3556 -0.09525,-0.127 -0.27305,-0.127 -0.18415,0 -0.28575,0.13335 -0.1016,0.13335 -0.1016,0.3683 v 2.0828 q 0,0.0317 -0.0254,0.0571 -0.01905,0.019 -0.0508,0.019 h -0.5842 q -0.03175,0 -0.05715,-0.019 -0.01905,-0.0254 -0.01905,-0.0571 v -4.2926 q 0,-0.0317 0.01905,-0.0508 0.0254,-0.0254 0.05715,-0.0254 h 0.5842 q 0.03175,0 0.0508,0.0254 0.0254,0.019 0.0254,0.0508 v 1.32715 q 0,0.019 0.0127,0.0254 0.01905,0 0.0381,-0.0254 0.2159,-0.254 0.60325,-0.254 z"
         style="font-style:normal;font-variant:normal;font-weight:600;font-stretch:condensed;font-size:6.3499999px;font-family:'Barlow Condensed';-inkscape-font-specification:'Barlow Condensed, Semi-Bold Condensed';font-variant-ligatures:normal;font-variant-caps:normal;font-variant-numeric:normal;font-feature-settings:normal;text-align:start;writing-mode:lr-tb;text-anchor:start;fill:#5c6370;fill-opacity:1;stroke-width:0.26458332px"
         id="path938"
         inkscape:connector-curvature="0" />
      <path
         d="m 82.503203,284.7445 q 0,0.0317 -0.0254,0.0571 -0.01905,0.019 -0.0508,0.019 h -1.4097 q -0.03175,0 -0.03175,0.0317 v 0.2794 q 0,0.2032 0.10795,0.3302 0.10795,0.127 0.2794,0.127 0.14605,0 0.24765,-0.0952 0.1016,-0.0953 0.1397,-0.2413 0.01905,-0.0698 0.08255,-0.0635 l 0.5715,0.0381 q 0.0762,0.0127 0.06985,0.0825 -0.0508,0.4318 -0.33655,0.6731 -0.2794,0.23495 -0.7747,0.23495 -0.5207,0 -0.8255,-0.27305 -0.29845,-0.2794 -0.29845,-0.75565 v -1.28905 q 0,-0.46355 0.29845,-0.74295 0.3048,-0.28575 0.8255,-0.28575 0.5207,0 0.8255,0.28575 0.3048,0.2794 0.3048,0.74295 z m -1.1303,-1.23825 q -0.17145,0 -0.2794,0.127 -0.10795,0.127 -0.10795,0.32385 v 0.2794 q 0,0.0318 0.03175,0.0318 h 0.71755 q 0.03175,0 0.03175,-0.0318 v -0.2794 q 0,-0.2032 -0.10795,-0.32385 -0.10795,-0.127 -0.28575,-0.127 z"
         style="font-style:normal;font-variant:normal;font-weight:600;font-stretch:condensed;font-size:6.3499999px;font-family:'Barlow Condensed';-inkscape-font-specification:'Barlow Condensed, Semi-Bold Condensed';font-variant-ligatures:normal;font-variant-caps:normal;font-variant-numeric:normal;font-feature-settings:normal;text-align:start;writing-mode:lr-tb;text-anchor:start;fill:#5c6370;fill-opacity:1;stroke-width:0.26458332px"
         id="path940"
         inkscape:connector-curvature="0" />
      <path
         d="m 83.054258,286.1669 q -0.03175,0 -0.05715,-0.019 -0.01905,-0.0254 -0.01905,-0.0571 v -4.2926 q 0,-0.0317 0.01905,-0.0508 0.0254,-0.0254 0.05715,-0.0254 h 0.5842 q 0.03175,0 0.0508,0.0254 0.0254,0.019 0.0254,0.0508 v 4.2926 q 0,0.0317 -0.0254,0.0571 -0.01905,0.019 -0.0508,0.019 z"
         style="font-style:normal;font-variant:normal;font-weight:600;font-stretch:condensed;font-size:6.3499999px;font-family:'Barlow Condensed';-inkscape-font-specification:'Barlow Condensed, Semi-Bold Condensed';font-variant-ligatures:normal;font-variant-caps:normal;font-variant-numeric:normal;font-feature-settings:normal;text-align:start;writing-mode:lr-tb;text-anchor:start;fill:#5c6370;fill-opacity:1;stroke-width:0.26458332px"
         id="path942"
         inkscape:connector-curvature="0" />
      <path
         d="m 84.230403,287.43055 q -0.0381,0 -0.0381,-0.0762 v -0.4572 q 0,-0.0762 0.03175,-0.0762 h 0.03175 q 0.20955,0 0.3302,-0.0508 0.12065,-0.0508 0.1905,-0.1905 0.0762,-0.13335 0.10795,-0.3937 l -0.0063,-0.0381 -0.8001,-3.14325 v -0.0254 q 0,-0.0571 0.06985,-0.0571 h 0.6223 q 0.0762,0 0.08255,0.0698 l 0.38735,2.0955 q 0.0063,0.019 0.01905,0.019 0.0127,0 0.01905,-0.019 l 0.37465,-2.0955 q 0.0063,-0.0698 0.08255,-0.0698 l 0.62865,0.006 q 0.0889,0 0.06985,0.0825 l -0.8509,3.33375 q -0.12065,0.45085 -0.254,0.6731 -0.13335,0.22225 -0.37465,0.3175 -0.2413,0.0952 -0.6858,0.0952 z"
         style="font-style:normal;font-variant:normal;font-weight:600;font-stretch:condensed;font-size:6.3499999px;font-family:'Barlow Condensed';-inkscape-font-specification:'Barlow Condensed, Semi-Bold Condensed';font-variant-ligatures:normal;font-variant-caps:normal;font-variant-numeric:normal;font-feature-settings:normal;text-align:start;writing-mode:lr-tb;text-anchor:start;fill:#5c6370;fill-opacity:1;stroke-width:0.26458332px"
         id="path944"
         inkscape:connector-curvature="0" />
      <path
         d="m 88.940017,284.7445 q 0,0.0317 -0.0254,0.0571 -0.01905,0.019 -0.0508,0.019 h -1.4097 q -0.03175,0 -0.03175,0.0317 v 0.2794 q 0,0.2032 0.10795,0.3302 0.10795,0.127 0.2794,0.127 0.14605,0 0.24765,-0.0952 0.1016,-0.0953 0.1397,-0.2413 0.01905,-0.0698 0.08255,-0.0635 l 0.5715,0.0381 q 0.0762,0.0127 0.06985,0.0825 -0.0508,0.4318 -0.33655,0.6731 -0.2794,0.23495 -0.7747,0.23495 -0.5207,0 -0.8255,-0.27305 -0.29845,-0.2794 -0.29845,-0.75565 v -1.28905 q 0,-0.46355 0.29845,-0.74295 0.3048,-0.28575 0.8255,-0.28575 0.5207,0 0.8255,0.28575 0.3048,0.2794 0.3048,0.74295 z m -1.1303,-1.23825 q -0.17145,0 -0.2794,0.127 -0.10795,0.127 -0.10795,0.32385 v 0.2794 q 0,0.0318 0.03175,0.0318 h 0.71755 q 0.03175,0 0.03175,-0.0318 v -0.2794 q 0,-0.2032 -0.10795,-0.32385 -0.10795,-0.127 -0.28575,-0.127 z"
         style="font-style:normal;font-variant:normal;font-weight:600;font-stretch:condensed;font-size:6.3499999px;font-family:'Barlow Condensed';-inkscape-font-specification:'Barlow Condensed, Semi-Bold Condensed';font-variant-ligatures:normal;font-variant-caps:normal;font-variant-numeric:normal;font-feature-settings:normal;text-align:start;writing-mode:lr-tb;text-anchor:start;fill:#5c6370;fill-opacity:1;stroke-width:0.26458332px"
         id="path946"
         inkscape:connector-curvature="0" />
      <path
         d="m 90.830929,282.87125 q 0.41275,0 0.6223,0.2794 0.2159,0.27305 0.2159,0.78105 v 2.159 q 0,0.0317 -0.0254,0.0571 -0.01905,0.019 -0.0508,0.019 h -0.5842 q -0.03175,0 -0.05715,-0.019 -0.01905,-0.0254 -0.01905,-0.0571 v -2.10185 q 0,-0.2286 -0.09525,-0.3556 -0.09525,-0.127 -0.27305,-0.127 -0.18415,0 -0.28575,0.13335 -0.1016,0.13335 -0.1016,0.3683 v 2.0828 q 0,0.0317 -0.0254,0.0571 -0.01905,0.019 -0.0508,0.019 h -0.5842 q -0.03175,0 -0.05715,-0.019 -0.01905,-0.0254 -0.01905,-0.0571 v -3.09245 q 0,-0.0317 0.01905,-0.0508 0.0254,-0.0254 0.05715,-0.0254 h 0.5842 q 0.03175,0 0.0508,0.0254 0.0254,0.019 0.0254,0.0508 v 0.127 q 0,0.019 0.0127,0.0254 0.01905,0 0.0381,-0.0254 0.2159,-0.254 0.60325,-0.254 z"
         style="font-style:normal;font-variant:normal;font-weight:600;font-stretch:condensed;font-size:6.3499999px;font-family:'Barlow Condensed';-inkscape-font-specification:'Barlow Condensed, Semi-Bold Condensed';font-variant-ligatures:normal;font-variant-caps:normal;font-variant-numeric:normal;font-feature-settings:normal;text-align:start;writing-mode:lr-tb;text-anchor:start;fill:#5c6370;fill-opacity:1;stroke-width:0.26458332px"
         id="path948"
         inkscape:connector-curvature="0" />
    </g>
    <g
       aria-label="Díjnet"
       style="font-style:normal;font-variant:normal;font-weight:600;font-stretch:condensed;font-size:25.39999962px;line-height:125%;font-family:'Barlow Condensed';-inkscape-font-specification:'Barlow Condensed, Semi-Bold Condensed';font-variant-ligatures:normal;font-variant-caps:normal;font-variant-numeric:normal;font-feature-settings:normal;text-align:start;letter-spacing:0px;word-spacing:0px;writing-mode:lr-tb;text-anchor:start;fill:#00b36f;fill-opacity:1;stroke:none;stroke-width:0.26458332px;stroke-linecap:butt;stroke-linejoin:miter;stroke-opacity:1"
       id="text837">
      <path
         d="m 12.388757,271.94812 q -0.127,0 -0.2286,-0.0762 -0.0762,-0.1016 -0.0762,-0.2286 v -17.1704 q 0,-0.127 0.0762,-0.2032 0.1016,-0.1016 0.2286,-0.1016 h 4.343399 q 2.1844,0 3.4798,1.3208 1.3208,1.3208 1.3208,3.5306 v 8.0772 q 0,2.2098 -1.3208,3.5306 -1.2954,1.3208 -3.4798,1.3208 z m 2.6416,-2.667 q 0,0.127 0.127,0.127 l 1.523999,-0.0254 q 0.8382,0 1.3462,-0.6604 0.5334,-0.6858 0.5588,-1.8034 v -7.7216 q 0,-1.143 -0.5334,-1.8034 -0.508,-0.6858 -1.397,-0.6858 h -1.498599 q -0.127,0 -0.127,0.127 z"
         style="font-style:normal;font-variant:normal;font-weight:600;font-stretch:condensed;font-size:25.39999962px;font-family:'Barlow Condensed';-inkscape-font-specification:'Barlow Condensed, Semi-Bold Condensed';font-variant-ligatures:normal;font-variant-caps:normal;font-variant-numeric:normal;font-feature-settings:normal;text-align:start;writing-mode:lr-tb;text-anchor:start;fill:#00b36f;fill-opacity:1;stroke-width:0.26458332px"
         id="path883"
         inkscape:connector-curvature="0" />
      <path
         d="m 24.140225,271.94812 q -0.127,0 -0.2286,-0.0762 -0.0762,-0.1016 -0.0762,-0.2286 v -12.3698 q 0,-0.127 0.0762,-0.2032 0.1016,-0.1016 0.2286,-0.1016 h 2.3368 q 0.127,0 0.2032,0.1016 0.1016,0.0762 0.1016,0.2032 v 12.3698 q 0,0.127 -0.1016,0.2286 -0.0762,0.0762 -0.2032,0.0762 z m -0.1524,-14.9098 q -0.1778,0 -0.254,-0.1016 -0.0762,-0.1016 0.0254,-0.254 l 1.4986,-2.6162 q 0.1016,-0.2032 0.381,-0.2032 h 2.1336 q 0.2032,0 0.254,0.127 0.0508,0.1016 -0.0508,0.254 l -1.8796,2.6162 q -0.127,0.1778 -0.3556,0.1778 z"
         style="font-style:normal;font-variant:normal;font-weight:600;font-stretch:condensed;font-size:25.39999962px;font-family:'Barlow Condensed';-inkscape-font-specification:'Barlow Condensed, Semi-Bold Condensed';font-variant-ligatures:normal;font-variant-caps:normal;font-variant-numeric:normal;font-feature-settings:normal;text-align:start;writing-mode:lr-tb;text-anchor:start;fill:#00b36f;fill-opacity:1;stroke-width:0.26458332px"
         id="path885"
         inkscape:connector-curvature="0" />
      <path
         d="m 30.618018,257.31772 q -0.7874,0 -1.2954,-0.508 -0.4826,-0.5334 -0.4826,-1.3208 0,-0.762 0.5334,-1.2954 0.5334,-0.5334 1.2446,-0.5334 0.711199,0 1.244599,0.5334 0.5334,0.5334 0.5334,1.2954 0,0.7874 -0.508,1.3208 -0.4826,0.508 -1.269999,0.508 z m -3.5306,19.8374 q -0.3048,0 -0.3048,-0.3048 v -1.905 q 0,-0.3048 0.3048,-0.3048 1.1176,-0.0254 1.5748,-0.6096 0.4826,-0.5842 0.4826,-1.6764 v -13.081 q 0,-0.127 0.0762,-0.2032 0.1016,-0.1016 0.2286,-0.1016 h 2.336799 q 0.127,0 0.2032,0.1016 0.1016,0.0762 0.1016,0.2032 v 13.081 q 0,1.7018 -0.3302,2.6924 -0.3302,1.016 -1.422399,1.5748 -1.0922,0.5588 -3.2512,0.5334 z"
         style="font-style:normal;font-variant:normal;font-weight:600;font-stretch:condensed;font-size:25.39999962px;font-family:'Barlow Condensed';-inkscape-font-specification:'Barlow Condensed, Semi-Bold Condensed';font-variant-ligatures:normal;font-variant-caps:normal;font-variant-numeric:normal;font-feature-settings:normal;text-align:start;writing-mode:lr-tb;text-anchor:start;fill:#00b36f;fill-opacity:1;stroke-width:0.26458332px"
         id="path887"
         inkscape:connector-curvature="0" />
      <path
         d="m 40.015622,258.76552 q 1.651,0 2.4892,1.1176 0.8636,1.0922 0.8636,3.1242 v 8.636 q 0,0.127 -0.1016,0.2286 -0.0762,0.0762 -0.2032,0.0762 h -2.3368 q -0.127,0 -0.2286,-0.0762 -0.0762,-0.1016 -0.0762,-0.2286 v -8.4074 q 0,-0.9144 -0.381,-1.4224 -0.381,-0.508 -1.0922,-0.508 -0.7366,0 -1.143,0.5334 -0.4064,0.5334 -0.4064,1.4732 v 8.3312 q 0,0.127 -0.1016,0.2286 -0.0762,0.0762 -0.2032,0.0762 h -2.3368 q -0.127,0 -0.2286,-0.0762 -0.0762,-0.1016 -0.0762,-0.2286 v -12.3698 q 0,-0.127 0.0762,-0.2032 0.1016,-0.1016 0.2286,-0.1016 h 2.3368 q 0.127,0 0.2032,0.1016 0.1016,0.0762 0.1016,0.2032 v 0.508 q 0,0.0762 0.0508,0.1016 0.0762,0 0.1524,-0.1016 0.8636,-1.016 2.413,-1.016 z"
         style="font-style:normal;font-variant:normal;font-weight:600;font-stretch:condensed;font-size:25.39999962px;font-family:'Barlow Condensed';-inkscape-font-specification:'Barlow Condensed, Semi-Bold Condensed';font-variant-ligatures:normal;font-variant-caps:normal;font-variant-numeric:normal;font-feature-settings:normal;text-align:start;writing-mode:lr-tb;text-anchor:start;fill:#00b36f;fill-opacity:1;stroke-width:0.26458332px"
         id="path889"
         inkscape:connector-curvature="0" />
      <path
         d="m 54.428931,266.25852 q 0,0.127 -0.1016,0.2286 -0.0762,0.0762 -0.2032,0.0762 h -5.638799 q -0.127,0 -0.127,0.127 v 1.1176 q 0,0.8128 0.4318,1.3208 0.431799,0.508 1.117599,0.508 0.5842,0 0.9906,-0.381 0.4064,-0.381 0.5588,-0.9652 0.0762,-0.2794 0.3302,-0.254 l 2.286,0.1524 q 0.3048,0.0508 0.2794,0.3302 -0.2032,1.7272 -1.3462,2.6924 -1.1176,0.9398 -3.0988,0.9398 -2.082799,0 -3.301999,-1.0922 -1.1938,-1.1176 -1.1938,-3.0226 v -5.1562 q 0,-1.8542 1.1938,-2.9718 1.2192,-1.143 3.301999,-1.143 2.0828,0 3.302,1.143 1.2192,1.1176 1.2192,2.9718 z m -4.5212,-4.953 q -0.6858,0 -1.117599,0.508 -0.4318,0.508 -0.4318,1.2954 v 1.1176 q 0,0.127 0.127,0.127 h 2.870199 q 0.127,0 0.127,-0.127 v -1.1176 q 0,-0.8128 -0.4318,-1.2954 -0.4318,-0.508 -1.143,-0.508 z"
         style="font-style:normal;font-variant:normal;font-weight:600;font-stretch:condensed;font-size:25.39999962px;font-family:'Barlow Condensed';-inkscape-font-specification:'Barlow Condensed, Semi-Bold Condensed';font-variant-ligatures:normal;font-variant-caps:normal;font-variant-numeric:normal;font-feature-settings:normal;text-align:start;writing-mode:lr-tb;text-anchor:start;fill:#00b36f;fill-opacity:1;stroke-width:0.26458332px"
         id="path891"
         inkscape:connector-curvature="0" />
      <path
         d="m 61.766357,260.74672 q 0,0.127 -0.1016,0.2286 -0.0762,0.0762 -0.2032,0.0762 h -1.5748 q -0.127,0 -0.127,0.127 v 6.6548 q 0,0.889 0.3302,1.2446 0.3302,0.3302 0.9906,0.3048 h 0.1778 q 0.127,0 0.2032,0.1016 0.1016,0.0762 0.1016,0.2032 v 1.9558 q 0,0.127 -0.1016,0.2286 -0.0762,0.0762 -0.2032,0.0762 h -0.8636 q -1.7272,0 -2.6162,-0.635 -0.8636,-0.635 -0.8636,-2.3876 v -7.747 q 0,-0.127 -0.127,-0.127 h -0.889 q -0.127,0 -0.2286,-0.0762 -0.0762,-0.1016 -0.0762,-0.2286 v -1.4732 q 0,-0.127 0.0762,-0.2032 0.1016,-0.1016 0.2286,-0.1016 h 0.889 q 0.127,0 0.127,-0.127 v -2.794 q 0,-0.127 0.0762,-0.2032 0.1016,-0.1016 0.2286,-0.1016 h 2.2352 q 0.127,0 0.2032,0.1016 0.1016,0.0762 0.1016,0.2032 v 2.794 q 0,0.127 0.127,0.127 h 1.5748 q 0.127,0 0.2032,0.1016 0.1016,0.0762 0.1016,0.2032 z"
         style="font-style:normal;font-variant:normal;font-weight:600;font-stretch:condensed;font-size:25.39999962px;font-family:'Barlow Condensed';-inkscape-font-specification:'Barlow Condensed, Semi-Bold Condensed';font-variant-ligatures:normal;font-variant-caps:normal;font-variant-numeric:normal;font-feature-settings:normal;text-align:start;writing-mode:lr-tb;text-anchor:start;fill:#00b36f;fill-opacity:1;stroke-width:0.26458332px"
         id="path893"
         inkscape:connector-curvature="0" />
    </g>
    <g
       aria-label="Bot"
       style="font-style:normal;font-variant:normal;font-weight:600;font-stretch:condensed;font-size:25.39999962px;line-height:125%;font-family:'Barlow Condensed';-inkscape-font-specification:'Barlow Condensed, Semi-Bold Condensed';font-variant-ligatures:normal;font-variant-caps:normal;font-variant-numeric:normal;font-feature-settings:normal;text-align:start;letter-spacing:0px;word-spacing:0px;writing-mode:lr-tb;text-anchor:start;fill:#0063b1;fill-opacity:1;stroke:none;stroke-width:0.26458332px;stroke-linecap:butt;stroke-linejoin:miter;stroke-opacity:1"
       id="text841">
      <path
         d="m 75.473286,267.07132 q 0,2.3368 -1.3716,3.6068 -1.3462,1.27 -3.5306,1.27 h -4.4704 q -0.127,0 -0.2286,-0.0762 -0.0762,-0.1016 -0.0762,-0.2286 v -17.1704 q 0,-0.127 0.0762,-0.2032 0.1016,-0.1016 0.2286,-0.1016 h 4.0132 q 2.413,0 3.7846,1.2192 1.3716,1.2192 1.3716,3.556 0,2.6162 -1.8542,3.7338 -0.127,0.0762 -0.0508,0.1524 0.9906,0.635 1.5494,1.7018 0.5588,1.0668 0.5588,2.54 z m -6.604,-10.3632 q -0.127,0 -0.127,0.127 v 4.7244 q 0,0.127 0.127,0.127 h 1.2954 q 1.0414,0 1.6256,-0.635 0.5842,-0.635 0.5842,-1.8034 0,-1.2192 -0.5842,-1.8796 -0.5842,-0.6604 -1.6256,-0.6604 z m 1.4732,12.6746 q 1.016,0 1.6002,-0.7112 0.5842,-0.7112 0.5842,-2.0066 0,-1.3208 -0.5842,-2.0574 -0.5842,-0.762 -1.6002,-0.762 h -1.4732 q -0.127,0 -0.127,0.127 v 5.2832 q 0,0.127 0.127,0.127 z"
         style="font-style:normal;font-variant:normal;font-weight:600;font-stretch:condensed;font-size:25.39999962px;font-family:'Barlow Condensed';-inkscape-font-specification:'Barlow Condensed, Semi-Bold Condensed';font-variant-ligatures:normal;font-variant-caps:normal;font-variant-numeric:normal;font-feature-settings:normal;text-align:start;writing-mode:lr-tb;text-anchor:start;fill:#0063b1;fill-opacity:1;stroke-width:0.26458332px"
         id="path876"
         inkscape:connector-curvature="0" />
      <path
         d="m 81.668107,272.15132 q -2.1082,0 -3.3274,-1.0922 -1.1938,-1.1176 -1.1938,-3.0226 v -5.1562 q 0,-1.8542 1.2192,-2.9718 1.2192,-1.143 3.302,-1.143 2.1082,0 3.3274,1.143 1.2192,1.1176 1.2192,2.9718 v 5.1562 q 0,1.905 -1.2192,3.0226 -1.1938,1.0922 -3.3274,1.0922 z m 0,-2.54 q 0.7112,0 1.143,-0.508 0.4572,-0.508 0.4572,-1.2954 v -4.699 q 0,-0.7874 -0.4572,-1.2954 -0.4318,-0.508 -1.143,-0.508 -0.7112,0 -1.143,0.508 -0.4318,0.4826 -0.4318,1.2954 v 4.699 q 0,0.8128 0.4318,1.3208 0.4318,0.4826 1.143,0.4826 z"
         style="font-style:normal;font-variant:normal;font-weight:600;font-stretch:condensed;font-size:25.39999962px;font-family:'Barlow Condensed';-inkscape-font-specification:'Barlow Condensed, Semi-Bold Condensed';font-variant-ligatures:normal;font-variant-caps:normal;font-variant-numeric:normal;font-feature-settings:normal;text-align:start;writing-mode:lr-tb;text-anchor:start;fill:#0063b1;fill-opacity:1;stroke-width:0.26458332px"
         id="path878"
         inkscape:connector-curvature="0" />
      <path
         d="m 93.749378,260.74672 q 0,0.127 -0.1016,0.2286 -0.0762,0.0762 -0.2032,0.0762 h -1.5748 q -0.127,0 -0.127,0.127 v 6.6548 q 0,0.889 0.3302,1.2446 0.3302,0.3302 0.9906,0.3048 h 0.1778 q 0.127,0 0.2032,0.1016 0.1016,0.0762 0.1016,0.2032 v 1.9558 q 0,0.127 -0.1016,0.2286 -0.0762,0.0762 -0.2032,0.0762 h -0.8636 q -1.7272,0 -2.6162,-0.635 -0.8636,-0.635 -0.8636,-2.3876 v -7.747 q 0,-0.127 -0.127,-0.127 h -0.889 q -0.127,0 -0.2286,-0.0762 -0.0762,-0.1016 -0.0762,-0.2286 v -1.4732 q 0,-0.127 0.0762,-0.2032 0.1016,-0.1016 0.2286,-0.1016 h 0.889 q 0.127,0 0.127,-0.127 v -2.794 q 0,-0.127 0.0762,-0.2032 0.1016,-0.1016 0.2286,-0.1016 h 2.2352 q 0.127,0 0.2032,0.1016 0.1016,0.0762 0.1016,0.2032 v 2.794 q 0,0.127 0.127,0.127 h 1.5748 q 0.127,0 0.2032,0.1016 0.1016,0.0762 0.1016,0.2032 z"
         style="font-style:normal;font-variant:normal;font-weight:600;font-stretch:condensed;font-size:25.39999962px;font-family:'Barlow Condensed';-inkscape-font-specification:'Barlow Condensed, Semi-Bold Condensed';font-variant-ligatures:normal;font-variant-caps:normal;font-variant-numeric:normal;font-feature-settings:normal;text-align:start;writing-mode:lr-tb;text-anchor:start;fill:#0063b1;fill-opacity:1;stroke-width:0.26458332px"
         id="path880"
         inkscape:connector-curvature="0" />
    </g>
    <path
       style="opacity:1;fill:#5c6370;fill-opacity:1;fill-rule:nonzero;stroke:none;stroke-width:0.0705436;stroke-linecap:round;stroke-linejoin:round;stroke-miterlimit:4;stroke-dasharray:none;stroke-dashoffset:0;stroke-opacity:0.25098039"
       d="m 57.381512,286.83832 h 7.163366 v 0.62814 h -7.163366 z"
       id="rect843"
       inkscape:connector-curvature="0" />
    <g
       aria-label="by"
       style="font-style:normal;font-variant:normal;font-weight:600;font-stretch:condensed;font-size:4.23333311px;line-height:125%;font-family:'Barlow Condensed';-inkscape-font-specification:'Barlow Condensed, Semi-Bold Condensed';font-variant-ligatures:normal;font-variant-caps:normal;font-variant-numeric:normal;font-feature-settings:normal;text-align:start;letter-spacing:0px;word-spacing:0px;writing-mode:lr-tb;text-anchor:start;fill:#5c6370;fill-opacity:0.50196078;stroke:none;stroke-width:0.26458332px;stroke-linecap:butt;stroke-linejoin:miter;stroke-opacity:1"
       id="text847">
      <path
         d="m 59.399205,274.88487 q 0.270933,0 0.423333,0.18203 0.156633,0.18204 0.1651,0.49954 v 0.8636 q -0.0085,0.31326 -0.160867,0.49953 -0.1524,0.18627 -0.427566,0.18627 -0.2413,0 -0.389467,-0.16087 -0.0085,-0.008 -0.01693,-0.004 -0.0085,0 -0.0085,0.0127 v 0.0677 q 0,0.0212 -0.01693,0.0381 -0.0127,0.0127 -0.03387,0.0127 h -0.389466 q -0.02117,0 -0.0381,-0.0127 -0.0127,-0.0169 -0.0127,-0.0381 v -2.86173 q 0,-0.0212 0.0127,-0.0339 0.01693,-0.0169 0.0381,-0.0169 h 0.389466 q 0.02117,0 0.03387,0.0169 0.01693,0.0127 0.01693,0.0339 v 0.86783 q 0,0.0127 0.0085,0.0127 0.0127,0 0.0254,-0.0127 0.1397,-0.1524 0.381,-0.1524 z m 0.1016,0.73237 q 0,-0.1397 -0.07197,-0.22437 -0.07197,-0.0847 -0.186267,-0.0847 -0.1143,0 -0.186266,0.0847 -0.07197,0.0847 -0.07197,0.22437 v 0.76623 q 0,0.1397 0.07197,0.22437 0.07197,0.0847 0.186266,0.0847 0.1143,0 0.186267,-0.0847 0.07197,-0.0889 0.07197,-0.22437 z"
         style="font-style:normal;font-variant:normal;font-weight:600;font-stretch:condensed;font-size:4.23333311px;font-family:'Barlow Condensed';-inkscape-font-specification:'Barlow Condensed, Semi-Bold Condensed';font-variant-ligatures:normal;font-variant-caps:normal;font-variant-numeric:normal;font-feature-settings:normal;text-align:start;writing-mode:lr-tb;text-anchor:start;fill:#5c6370;fill-opacity:0.50196078;stroke-width:0.26458332px"
         id="path870"
         inkscape:connector-curvature="0" />
      <path
         d="m 60.29515,277.9244 q -0.0254,0 -0.0254,-0.0508 v -0.3048 q 0,-0.0508 0.02117,-0.0508 h 0.02117 q 0.1397,0 0.220134,-0.0339 0.08043,-0.0339 0.127,-0.127 0.0508,-0.0889 0.07197,-0.26247 l -0.0042,-0.0254 -0.5334,-2.0955 v -0.0169 q 0,-0.0381 0.04657,-0.0381 h 0.414866 q 0.0508,0 0.05503,0.0466 l 0.258233,1.397 q 0.0042,0.0127 0.0127,0.0127 0.0085,0 0.0127,-0.0127 l 0.249767,-1.397 q 0.0042,-0.0466 0.05503,-0.0466 l 0.4191,0.004 q 0.05927,0 0.04657,0.055 l -0.567267,2.2225 q -0.08043,0.30057 -0.169333,0.44874 -0.0889,0.14816 -0.249767,0.21166 -0.160867,0.0635 -0.4572,0.0635 z"
         style="font-style:normal;font-variant:normal;font-weight:600;font-stretch:condensed;font-size:4.23333311px;font-family:'Barlow Condensed';-inkscape-font-specification:'Barlow Condensed, Semi-Bold Condensed';font-variant-ligatures:normal;font-variant-caps:normal;font-variant-numeric:normal;font-feature-settings:normal;text-align:start;writing-mode:lr-tb;text-anchor:start;fill:#5c6370;fill-opacity:0.50196078;stroke-width:0.26458332px"
         id="path872"
         inkscape:connector-curvature="0" />
    </g>
    <g
       aria-label="juzraai"
       style="font-style:normal;font-variant:normal;font-weight:600;font-stretch:condensed;font-size:4.23333311px;line-height:125%;font-family:'Barlow Condensed';-inkscape-font-specification:'Barlow Condensed, Semi-Bold Condensed';font-variant-ligatures:normal;font-variant-caps:normal;font-variant-numeric:normal;font-feature-settings:normal;text-align:start;letter-spacing:0px;word-spacing:0px;writing-mode:lr-tb;text-anchor:start;fill:#5c6370;fill-opacity:0.50196078;stroke:none;stroke-width:0.26458332px;stroke-linecap:butt;stroke-linejoin:miter;stroke-opacity:1"
       id="text851">
      <path
         d="m 66.435117,274.64357 q -0.131234,0 -0.2159,-0.0847 -0.08043,-0.0889 -0.08043,-0.22013 0,-0.127 0.0889,-0.2159 0.0889,-0.0889 0.207434,-0.0889 0.118533,0 0.207433,0.0889 0.0889,0.0889 0.0889,0.2159 0,0.13123 -0.08467,0.22013 -0.08043,0.0847 -0.211667,0.0847 z m -0.588434,3.30623 q -0.0508,0 -0.0508,-0.0508 v -0.3175 q 0,-0.0508 0.0508,-0.0508 0.186267,-0.004 0.262467,-0.1016 0.08043,-0.0974 0.08043,-0.2794 v -2.18016 q 0,-0.0212 0.0127,-0.0339 0.01693,-0.0169 0.0381,-0.0169 h 0.389467 q 0.02117,0 0.03387,0.0169 0.01693,0.0127 0.01693,0.0339 v 2.18016 q 0,0.28364 -0.05503,0.44874 -0.05503,0.16933 -0.237067,0.26246 -0.182033,0.0931 -0.541867,0.0889 z"
         style="font-style:normal;font-variant:normal;font-weight:600;font-stretch:condensed;font-size:4.23333311px;font-family:'Barlow Condensed';-inkscape-font-specification:'Barlow Condensed, Semi-Bold Condensed';font-variant-ligatures:normal;font-variant-caps:normal;font-variant-numeric:normal;font-feature-settings:normal;text-align:start;writing-mode:lr-tb;text-anchor:start;fill:#5c6370;fill-opacity:0.50196078;stroke-width:0.26458332px"
         id="path855"
         inkscape:connector-curvature="0" />
      <path
         d="m 68.052184,274.96954 q 0,-0.0212 0.0127,-0.0339 0.01693,-0.0169 0.0381,-0.0169 h 0.389467 q 0.02117,0 0.03387,0.0169 0.01693,0.0127 0.01693,0.0339 v 2.06163 q 0,0.0212 -0.01693,0.0381 -0.0127,0.0127 -0.03387,0.0127 h -0.389467 q -0.02117,0 -0.0381,-0.0127 -0.0127,-0.0169 -0.0127,-0.0381 v -0.0931 q 0,-0.0127 -0.0085,-0.0169 -0.0085,-0.004 -0.01693,0.008 -0.122767,0.18203 -0.3937,0.18203 -0.258233,0 -0.4191,-0.1524 -0.156633,-0.15663 -0.156633,-0.47836 v -1.5113 q 0,-0.0212 0.0127,-0.0339 0.01693,-0.0169 0.0381,-0.0169 h 0.389466 q 0.02117,0 0.03387,0.0169 0.01693,0.0127 0.01693,0.0339 v 1.40546 q 0,0.3175 0.245534,0.3175 0.122766,0 0.1905,-0.0889 0.06773,-0.0931 0.06773,-0.24976 z"
         style="font-style:normal;font-variant:normal;font-weight:600;font-stretch:condensed;font-size:4.23333311px;font-family:'Barlow Condensed';-inkscape-font-specification:'Barlow Condensed, Semi-Bold Condensed';font-variant-ligatures:normal;font-variant-caps:normal;font-variant-numeric:normal;font-feature-settings:normal;text-align:start;writing-mode:lr-tb;text-anchor:start;fill:#5c6370;fill-opacity:0.50196078;stroke-width:0.26458332px"
         id="path857"
         inkscape:connector-curvature="0" />
      <path
         d="m 68.884034,277.08197 q -0.02117,0 -0.0381,-0.0127 -0.0127,-0.0169 -0.0127,-0.0381 v -0.35983 q 0,-0.0339 0.01693,-0.0635 l 0.728134,-1.2192 q 0.0127,-0.0254 -0.0127,-0.0254 h -0.664634 q -0.02117,0 -0.0381,-0.0127 -0.0127,-0.0169 -0.0127,-0.0381 v -0.3429 q 0,-0.0212 0.0127,-0.0339 0.01693,-0.0169 0.0381,-0.0169 H 70.1244 q 0.02117,0 0.03387,0.0169 0.01693,0.0127 0.01693,0.0339 v 0.35983 q 0,0.0339 -0.01693,0.0635 l -0.7493,1.2192 q -0.0127,0.0254 0.0127,0.0254 h 0.7239 q 0.02117,0 0.03387,0.0169 0.01693,0.0127 0.01693,0.0339 v 0.3429 q 0,0.0212 -0.01693,0.0381 -0.0127,0.0127 -0.03387,0.0127 z"
         style="font-style:normal;font-variant:normal;font-weight:600;font-stretch:condensed;font-size:4.23333311px;font-family:'Barlow Condensed';-inkscape-font-specification:'Barlow Condensed, Semi-Bold Condensed';font-variant-ligatures:normal;font-variant-caps:normal;font-variant-numeric:normal;font-feature-settings:normal;text-align:start;writing-mode:lr-tb;text-anchor:start;fill:#5c6370;fill-opacity:0.50196078;stroke-width:0.26458332px"
         id="path859"
         inkscape:connector-curvature="0" />
      <path
         d="m 71.365561,274.89334 q 0.1143,0 0.1778,0.0423 0.03387,0.0212 0.0254,0.0635 l -0.06773,0.3937 q -0.0042,0.0508 -0.05927,0.0296 -0.05927,-0.0169 -0.110067,-0.0169 -0.0508,0 -0.09313,0.0127 -0.118534,0.0169 -0.194734,0.13547 -0.07197,0.1143 -0.07197,0.27516 v 1.20227 q 0,0.0212 -0.01693,0.0381 -0.0127,0.0127 -0.03387,0.0127 h -0.389467 q -0.02117,0 -0.0381,-0.0127 -0.0127,-0.0169 -0.0127,-0.0381 v -2.06163 q 0,-0.0212 0.0127,-0.0339 0.01693,-0.0169 0.0381,-0.0169 h 0.389467 q 0.02117,0 0.03387,0.0169 0.01693,0.0127 0.01693,0.0339 v 0.19473 q 0,0.0169 0.0085,0.0212 0.0085,0 0.0127,-0.0169 0.1143,-0.27516 0.372534,-0.27516 z"
         style="font-style:normal;font-variant:normal;font-weight:600;font-stretch:condensed;font-size:4.23333311px;font-family:'Barlow Condensed';-inkscape-font-specification:'Barlow Condensed, Semi-Bold Condensed';font-variant-ligatures:normal;font-variant-caps:normal;font-variant-numeric:normal;font-feature-settings:normal;text-align:start;writing-mode:lr-tb;text-anchor:start;fill:#5c6370;fill-opacity:0.50196078;stroke-width:0.26458332px"
         id="path861"
         inkscape:connector-curvature="0" />
      <path
         d="m 72.515308,274.88487 q 0.334433,0 0.541866,0.19473 0.207434,0.19474 0.207434,0.51224 v 1.43933 q 0,0.0212 -0.01693,0.0381 -0.0127,0.0127 -0.03387,0.0127 h -0.389467 q -0.02117,0 -0.0381,-0.0127 -0.0127,-0.0169 -0.0127,-0.0381 v -0.0762 q 0,-0.0127 -0.0085,-0.0169 -0.0085,-0.004 -0.01693,0.008 -0.1524,0.16934 -0.427567,0.16934 -0.2413,0 -0.427566,-0.13547 -0.182034,-0.1397 -0.182034,-0.50377 0,-0.381 0.220134,-0.54186 0.224366,-0.16087 0.605366,-0.16087 h 0.2159 q 0.02117,0 0.02117,-0.0212 v -0.11006 q 0,-0.1524 -0.0762,-0.2413 -0.0762,-0.0931 -0.1905,-0.0931 -0.0889,0 -0.148167,0.0593 -0.05927,0.055 -0.07197,0.1524 -0.0042,0.0508 -0.05503,0.0508 h -0.410633 q -0.0508,0 -0.04657,-0.0508 0.02117,-0.28787 0.224367,-0.46143 0.207433,-0.17357 0.516467,-0.17357 z m -0.05927,1.82457 q 0.127,0 0.220133,-0.0804 0.09737,-0.0804 0.09737,-0.22436 v -0.2413 q 0,-0.0212 -0.02117,-0.0212 h -0.2159 q -0.148166,0 -0.237066,0.0804 -0.08467,0.0762 -0.08467,0.22437 0,0.13123 0.06773,0.19897 0.06773,0.0635 0.173567,0.0635 z"
         style="font-style:normal;font-variant:normal;font-weight:600;font-stretch:condensed;font-size:4.23333311px;font-family:'Barlow Condensed';-inkscape-font-specification:'Barlow Condensed, Semi-Bold Condensed';font-variant-ligatures:normal;font-variant-caps:normal;font-variant-numeric:normal;font-feature-settings:normal;text-align:start;writing-mode:lr-tb;text-anchor:start;fill:#5c6370;fill-opacity:0.50196078;stroke-width:0.26458332px"
         id="path863"
         inkscape:connector-curvature="0" />
      <path
         d="m 74.350854,274.88487 q 0.334434,0 0.541867,0.19473 0.207433,0.19474 0.207433,0.51224 v 1.43933 q 0,0.0212 -0.01693,0.0381 -0.0127,0.0127 -0.03387,0.0127 h -0.389466 q -0.02117,0 -0.0381,-0.0127 -0.0127,-0.0169 -0.0127,-0.0381 v -0.0762 q 0,-0.0127 -0.0085,-0.0169 -0.0085,-0.004 -0.01693,0.008 -0.1524,0.16934 -0.427567,0.16934 -0.2413,0 -0.427567,-0.13547 -0.182033,-0.1397 -0.182033,-0.50377 0,-0.381 0.220133,-0.54186 0.224367,-0.16087 0.605367,-0.16087 h 0.2159 q 0.02117,0 0.02117,-0.0212 v -0.11006 q 0,-0.1524 -0.0762,-0.2413 -0.0762,-0.0931 -0.1905,-0.0931 -0.0889,0 -0.148167,0.0593 -0.05927,0.055 -0.07197,0.1524 -0.0042,0.0508 -0.05503,0.0508 h -0.410633 q -0.0508,0 -0.04657,-0.0508 0.02117,-0.28787 0.224367,-0.46143 0.207433,-0.17357 0.516466,-0.17357 z m -0.05927,1.82457 q 0.127,0 0.220133,-0.0804 0.09737,-0.0804 0.09737,-0.22436 v -0.2413 q 0,-0.0212 -0.02117,-0.0212 h -0.2159 q -0.148167,0 -0.237067,0.0804 -0.08467,0.0762 -0.08467,0.22437 0,0.13123 0.06773,0.19897 0.06773,0.0635 0.173567,0.0635 z"
         style="font-style:normal;font-variant:normal;font-weight:600;font-stretch:condensed;font-size:4.23333311px;font-family:'Barlow Condensed';-inkscape-font-specification:'Barlow Condensed, Semi-Bold Condensed';font-variant-ligatures:normal;font-variant-caps:normal;font-variant-numeric:normal;font-feature-settings:normal;text-align:start;writing-mode:lr-tb;text-anchor:start;fill:#5c6370;fill-opacity:0.50196078;stroke-width:0.26458332px"
         id="path865"
         inkscape:connector-curvature="0" />
      <path
         d="m 75.724968,274.6478 q -0.131233,0 -0.2159,-0.0847 -0.08043,-0.0847 -0.08043,-0.22014 0,-0.13546 0.08043,-0.22013 0.08467,-0.0847 0.2159,-0.0847 0.131233,0 0.211667,0.0847 0.08467,0.0847 0.08467,0.22013 0,0.13547 -0.08467,0.22014 -0.08043,0.0847 -0.211667,0.0847 z m -0.194733,2.43417 q -0.02117,0 -0.0381,-0.0127 -0.0127,-0.0169 -0.0127,-0.0381 v -2.06163 q 0,-0.0212 0.0127,-0.0339 0.01693,-0.0169 0.0381,-0.0169 h 0.389466 q 0.02117,0 0.03387,0.0169 0.01693,0.0127 0.01693,0.0339 v 2.06163 q 0,0.0212 -0.01693,0.0381 -0.0127,0.0127 -0.03387,0.0127 z"
         style="font-style:normal;font-variant:normal;font-weight:600;font-stretch:condensed;font-size:4.23333311px;font-family:'Barlow Condensed';-inkscape-font-specification:'Barlow Condensed, Semi-Bold Condensed';font-variant-ligatures:normal;font-variant-caps:normal;font-variant-numeric:normal;font-feature-settings:normal;text-align:start;writing-mode:lr-tb;text-anchor:start;fill:#5c6370;fill-opacity:0.50196078;stroke-width:0.26458332px"
         id="path867"
         inkscape:connector-curvature="0" />
    </g>
  </g>
</svg>
